<?xml version="1.0" encoding="UTF-8"?>
<svg version="1.1" xmlns="http://www.w3.org/2000/svg" width="256" height="256">
<path d="M0 0 C18.32741899 14.98290298 28.59987143 36.90044698 31.06738281 60.19604492 C33.15717631 84.27289857 25.15369604 106.19765337 9.94238281 124.75854492 C-4.61731944 141.8670136 -25.60139592 152.04267716 -47.93261719 154.19604492 C-72.80680915 155.59154585 -95.11098997 148.9222416 -114.33496094 132.57495117 C-130.57357373 117.70380051 -141.72637628 97.08143321 -143.07495117 74.84960938 C-144.08207092 48.06227424 -136.79511035 25.07532321 -118.37011719 5.07104492 C-85.27228155 -26.10711625 -35.4429163 -28.05983052 0 0 Z M-84.30761719 38.82104492 C-92.99386989 48.21452905 -95.42411195 58.73980656 -95.21777344 71.06713867 C-94.74206679 81.48726562 -89.4775357 90.3180702 -82.11621094 97.45776367 C-74.45141764 103.55943276 -64.15867809 107.82029093 -54.26074219 107.50854492 C-45.14160822 106.28450009 -37.05540358 102.97807152 -29.93261719 97.19604492 C-28.97742188 96.42647461 -28.97742188 96.42647461 -28.00292969 95.64135742 C-21.21397943 89.55169818 -17.30957834 80.73922775 -16.69433594 71.69213867 C-16.32215112 58.10571624 -19.28326718 48.41137823 -28.67480469 38.32495117 C-35.63073615 31.61435339 -44.76906314 27.62733875 -54.44433594 27.13354492 C-65.61747247 27.41418885 -75.99105417 31.21733017 -84.30761719 38.82104492 Z " fill="#EA2222" transform="translate(183.9326171875,60.803955078125)"/>
<path d="M0 0 C2.27537028 1.68278636 4.37213852 3.45188815 6.46484375 5.35546875 C7.09003906 5.90074219 7.71523437 6.44601563 8.359375 7.0078125 C16.69478066 14.7257807 22.28387654 25.17787525 22.93359375 36.58984375 C22.96774854 38.42809765 22.97752768 40.26694133 22.96484375 42.10546875 C22.95912354 43.07121826 22.95340332 44.03696777 22.94750977 45.03198242 C22.64432475 57.21348659 18.69965397 66.30251324 10.46484375 75.35546875 C9.64693359 76.29326172 9.64693359 76.29326172 8.8125 77.25 C1.08246251 85.59844049 -9.39761831 91.22762069 -20.83984375 91.7890625 C-22.69646554 91.81262453 -24.55349724 91.8133875 -26.41015625 91.79296875 C-27.38178711 91.78467041 -28.35341797 91.77637207 -29.35449219 91.76782227 C-42.51501269 91.45726581 -51.6747112 86.60609646 -61.34765625 77.79296875 C-62.06953125 76.98859375 -62.79140625 76.18421875 -63.53515625 75.35546875 C-64.33953125 74.50984375 -65.14390625 73.66421875 -65.97265625 72.79296875 C-75.96328512 60.61391641 -76.86787534 46.42036445 -75.53515625 31.35546875 C-73.5744631 20.92486954 -67.25146815 12.35398419 -59.53515625 5.35546875 C-58.92285156 4.79988281 -58.31054688 4.24429688 -57.6796875 3.671875 C-41.71926747 -9.84651355 -17.61348073 -11.42569397 0 0 Z M-54.91015625 13.98046875 C-63.59640895 23.37395288 -66.02665102 33.89923039 -65.8203125 46.2265625 C-65.34460586 56.64668945 -60.08007476 65.47749402 -52.71875 72.6171875 C-45.0539567 78.71885658 -34.76121715 82.97971476 -24.86328125 82.66796875 C-15.74414728 81.44392392 -7.65794264 78.13749535 -0.53515625 72.35546875 C0.42003906 71.58589844 0.42003906 71.58589844 1.39453125 70.80078125 C8.18348151 64.71112201 12.0878826 55.89865158 12.703125 46.8515625 C13.07530982 33.26514006 10.11419376 23.57080206 0.72265625 13.484375 C-6.23327522 6.77377722 -15.3716022 2.78676258 -25.046875 2.29296875 C-36.22001154 2.57361268 -46.59359324 6.37675399 -54.91015625 13.98046875 Z " fill="#030000" transform="translate(154.53515625,85.64453125)"/>
</svg>
